<?xml version="1.0"?>
<svg xmlns="http://www.w3.org/2000/svg" viewBox="0 0 512 512" width="512" height="512"><g id="Fill_out_line" data-name="Fill out line"><path d="M24,256a24.00619,24.00619,0,0,0,24,24h72a24,24,0,0,0,0-48H48a24.002,24.002,0,0,0-24,24Z" style="fill:#8acce7"/><path d="M152,368c-25.32959,0-49.31738-13.51562-65.81348-37.08105C71.87939,310.48047,64,283.87305,64,256s7.87939-54.48047,22.18652-74.91895C102.68262,157.51562,126.67041,144,152,144s49.31738,13.51562,65.81348,37.08105C232.12061,201.51953,240,228.127,240,256s-7.87939,54.48047-22.18652,74.919C201.31738,354.48438,177.32959,368,152,368Z" style="fill:#2f4054"/><ellipse cx="160" cy="256" rx="56" ry="80" style="fill:#395166"/><path d="M384,232v48H160a23.59986,23.59986,0,0,1-3.88-.32007A23.99764,23.99764,0,0,1,160,232Z" style="fill:#8acce7"/><path d="M368,368c-25.32959,0-49.31738-13.51562-65.81348-37.08105C287.87939,310.48047,280,283.87305,280,256s7.87939-54.48047,22.18652-74.91895C318.68262,157.51562,342.67041,144,368,144s49.31738,13.51562,65.81348,37.08105C448.12061,201.51953,456,228.127,456,256s-7.87939,54.48047-22.18652,74.919C417.31738,354.48438,393.32959,368,368,368Z" style="fill:#2f4054"/><ellipse cx="376" cy="256" rx="56" ry="80" style="fill:#395166"/><path d="M464,232v48H392a23.59931,23.59931,0,0,1-3.88-.32007A23.99786,23.99786,0,0,1,392,232Z" style="fill:#8acce7"/><circle cx="463.99998" cy="256" r="24" style="fill:#379ec3"/><path d="M464,224h-3.38306a131.40191,131.40191,0,0,0-20.24975-47.50684C422.353,150.75879,395.97607,136,368,136s-54.353,14.75879-72.36719,40.49316A131.06607,131.06607,0,0,0,275.38354,224H244.61676a131.41533,131.41533,0,0,0-20.24957-47.50684C206.353,150.75879,179.97607,136,152,136s-54.353,14.75879-72.36719,40.49316A131.0672,131.0672,0,0,0,59.38348,224H48a32,32,0,0,0,0,64H59.38348a131.0672,131.0672,0,0,0,20.24933,47.50684C97.647,361.24121,124.02393,376,152,376s54.353-14.75879,72.36719-40.49316A131.41533,131.41533,0,0,0,244.61676,288h30.76678a131.06607,131.06607,0,0,0,20.24927,47.50684C313.647,361.24121,340.02393,376,368,376s54.353-14.75879,72.36719-40.49316A131.40191,131.40191,0,0,0,460.61694,288H464a32,32,0,0,0,0-64Zm-72,64h26.9209c-8.07446,23.97754-24.84,40-42.9209,40-12.27246,0-24.0083-7.11035-33.04492-20.02051C333.311,294.20215,328,275.74219,328,256s5.311-38.20215,14.95508-51.97949C351.9917,191.11035,363.72754,184,376,184c18.08093,0,34.84644,16.02246,42.9209,40H392a32,32,0,0,0,0,64Zm44.00232-16.52588A16.01422,16.01422,0,0,1,424,256H408a31.79525,31.79525,0,0,0,4.00232,15.47412A16.01422,16.01422,0,0,1,400,256H384a31.79525,31.79525,0,0,0,4.00232,15.47412A15.98963,15.98963,0,0,1,392,240h44.30518a31.89923,31.89923,0,0,0-.30286,31.47412ZM160,288h42.92505c-8.079,23.97778-24.84644,40-42.925,40-12.272,0-24.00732-7.10938-33.04395-20.01953C117.31152,294.20312,112,275.74219,112,256s5.31152-38.20312,14.95605-51.98047C135.99268,191.10938,147.728,184,160,184c18.07861,0,34.84607,16.02222,42.92505,40H160a32,32,0,0,0,0,64Zm112.67725-17.79053A16.00574,16.00574,0,0,1,264,256H248a31.79591,31.79591,0,0,0,4.00232,15.47412A16.01415,16.01415,0,0,1,240,256H224a31.79591,31.79591,0,0,0,4.00232,15.47412A16.01415,16.01415,0,0,1,216,256H200a31.79591,31.79591,0,0,0,4.00232,15.47412A16.01415,16.01415,0,0,1,192,256H176a31.79591,31.79591,0,0,0,4.00232,15.47412A16.01415,16.01415,0,0,1,168,256H152a31.79591,31.79591,0,0,0,4.00232,15.47412A15.98963,15.98963,0,0,1,160,240H272.83691A154.14372,154.14372,0,0,0,272,256C272,260.77905,272.24329,265.519,272.67725,270.20947ZM48,272a16,16,0,0,1,0-32h8.837a153.34926,153.34926,0,0,0,0,32Zm163.25977,54.33105C196.28174,347.72852,174.68213,360,152,360s-44.28125-12.27148-59.25977-33.66895C79.36572,307.22461,72,282.24707,72,256s7.36572-51.22461,20.74023-70.331C107.71875,164.27148,129.31787,152,152,152s44.28174,12.27148,59.25977,33.66895A114.152,114.152,0,0,1,228.204,224h-8.5296C210.21637,190.24561,186.81323,168,160,168c-17.644,0-34.03418,9.5332-46.15186,26.84375C102.33887,211.28613,96,233.00488,96,256s6.33887,44.71387,17.84814,61.15625C125.96582,334.4668,142.356,344,160,344c26.81323,0,50.21637-22.24561,59.67444-56h8.5296A114.152,114.152,0,0,1,211.25977,326.33105Zm216,0C412.28174,347.72852,390.68213,360,368,360s-44.28125-12.27148-59.25977-33.66895C295.36572,307.22461,288,282.24707,288,256s7.36572-51.22461,20.74023-70.331C323.71875,164.27148,345.31787,152,368,152s44.28174,12.27148,59.25977,33.66895A114.15946,114.15946,0,0,1,444.2041,224h-8.535C426.21753,190.24585,402.81616,168,376,168c-17.645,0-34.03564,9.53418-46.15283,26.84473C318.33838,211.28711,312,233.00586,312,256s6.33838,44.71289,17.84717,61.15527C341.96436,334.46582,358.355,344,376,344c26.81616,0,50.21753-22.24585,59.66907-56h8.535A114.15946,114.15946,0,0,1,427.25977,326.33105ZM464,272a16,16,0,1,1,16-16A16.01833,16.01833,0,0,1,464,272Z"/></g></svg>
